# xmcd
#
# Track frame offsets:
#	187
#	12757
#	26427
#	38735
#	52922
#	65562
#	80310
#	92372
#	106230
#	119420
#	131137
#	145045
#	158052
#	172087
#	186490
#	199052
#	214447
#	226032
#	236802
#	249740
#	263055
#	277592
#	291667
#	303575
#	317045
#
# Disc length: 4407
#
# Revision: 2
# Processed by: cddbd v1.5.1PL0 Copyright (c) Steve Scherf et al.
# Submitted via: CDex 1.40Release
# Normalized: r1:TDELIM( - )
#
DISCID=63113519
DTITLE=Atlantic Records - Atlantic Rhythm And Blues[1]1947-1952
DYEAR=1985
DGENRE=R&B
TTITLE0=Joe Morris - Lowe Groovin'
TTITLE1=Tiny Grimes - Annie Laurie
TTITLE2=Tiny Grimes - Midnight Special
TTITLE3=Joe Morris - The Applejack
TTITLE4=Frank Culley - Cole Slaw
TTITLE5=Stick McGee - Drinkin' Wine Spo-Dee-O-Dee
TTITLE6=Ruth Brown - So Long
TTITLE7=Professor Longhair - Hey Little Girl
TTITLE8=Professor Longhair - Mardi Gras In New Orleans
TTITLE9=Harry Van Walls - Tee Nah Nah
TTITLE10=Joe Morris - Anytime, Anyplace, Anywhere
TTITLE11=Ruth Brown - Teardrops From My Eyes
TTITLE12=The Clovers - Don't You Know I Love You
TTITLE13=The Cardinals - Shouldn't I Know
TTITLE14=Joe Turner - The Chill Is On
TTITLE15=Joe Turner - Chains Of Love
TTITLE16=The Clovers - Fool, Fool, Fool
TTITLE17=The Clovers - One Mint Julep
TTITLE18=The Cardinals - Wheel Of Fortune
TTITLE19=Joe Turner - Sweet Sixteen
TTITLE20=Ruth Brown - 5-10-15 Hours
TTITLE21=The Clovers - Ting-A-Ling
TTITLE22=Willis Jackson - Gator's Groove
TTITLE23=Ruth Brown - Daddy Daddy
TTITLE24=Ray Charles - The Midnight Hour
EXTD=YEAR: 1985 ID3G: 14
EXTT0=
EXTT1=
EXTT2=
EXTT3=
EXTT4=
EXTT5=
EXTT6=
EXTT7=
EXTT8=
EXTT9=
EXTT10=
EXTT11=
EXTT12=
EXTT13=
EXTT14=
EXTT15=
EXTT16=
EXTT17=
EXTT18=
EXTT19=
EXTT20=
EXTT21=
EXTT22=
EXTT23=
EXTT24=
PLAYORDER=
